<svg id="Layer_1" data-name="Layer 1" xmlns="http://www.w3.org/2000/svg" viewBox="0 0 85.44 85.05"><defs><style>.cls-1{fill:#fff;}.cls-2{fill:#ed145b;}</style></defs><circle class="cls-1" cx="42.72" cy="42.52" r="40.56"/><path class="cls-2" d="M10.52,37.26a14.69,14.69,0,0,0-.42-4.13,12,12,0,0,0-1-2.34A1.61,1.61,0,0,0,9,30.56a1.16,1.16,0,0,1-.13-.22H25.66V53.56a14.91,14.91,0,0,0,.41,4.14,12.29,12.29,0,0,0,1,2.34.91.91,0,0,0,.13.22,2.42,2.42,0,0,1,.12.23H8.85A1.26,1.26,0,0,1,9,60.26,1.45,1.45,0,0,0,9.1,60a12.29,12.29,0,0,0,1-2.34,14.82,14.82,0,0,0,.42-4.14Z"/><rect class="cls-2" x="10.64" y="19.3" width="14.88" height="7.95"/><path class="cls-2" d="M60.88,65.75l-3-5.26H42.59q-5,0-7.7-2.73T32.2,48.43V31.49q0-6.73,2.69-9.46t7.7-2.73H66.2c3.34,0,5.9.91,7.7,2.73s2.69,5,2.69,9.46V48.43q0,6.6-2.69,9.33c-1.8,1.82-4.36,2.73-7.7,2.73h-2l3,5.26ZM56.71,47.66l3.2,5.51a2,2,0,0,0,.68-.8,3.16,3.16,0,0,0,.22-1.31V28.86A2.59,2.59,0,0,0,60,26.68a3.85,3.85,0,0,0-2.31-.58h-6.8a3.85,3.85,0,0,0-2.31.58,2.59,2.59,0,0,0-.77,2.18v22.2a2.42,2.42,0,0,0,.77,2,3.78,3.78,0,0,0,2.31.58H54l-3.4-6Z"/></svg>